HIERARCHY
ROOT RootJoint
{
    OFFSET   0.000000   0.000000   0.000000
    CHANNELS 6 Xposition Yposition Zposition Xrotation Yrotation Zrotation
    JOINT pelvis_lowerback
    {
        OFFSET   0.000000   0.093605   0.000000
        CHANNELS 3 Xrotation Yrotation Zrotation
        JOINT lowerback_torso
        {
            OFFSET   0.000000   0.100000   0.000000
            CHANNELS 3 Xrotation Yrotation Zrotation
            JOINT torso_head
            {
                OFFSET   0.000000   0.282350   0.000000
                CHANNELS 3 Xrotation Yrotation Zrotation
                End Site
                {
                    OFFSET   0.000000   0.192650   0.000000
                }
            }
            JOINT rTorso_Clavicle
            {
                OFFSET  -0.001000   0.157500   0.000000
                CHANNELS 3 Xrotation Yrotation Zrotation
                JOINT rShoulder
                {
                    OFFSET  -0.117647   0.000000   0.000000
                    CHANNELS 3 Xrotation Yrotation Zrotation
                    JOINT rElbow
                    {
                        OFFSET  -0.245000   0.000000   0.000000
                        CHANNELS 3 Xrotation Yrotation Zrotation
                        JOINT rWrist
                        {
                            OFFSET  -0.240000   0.000000   0.000000
                            CHANNELS 3 Xrotation Yrotation Zrotation
                            End Site
                            {
                                OFFSET  -0.116353  -0.002500   0.000000
                            }
                        }
                    }
                }
            }
            JOINT lTorso_Clavicle
            {
                OFFSET   0.001000   0.157500   0.000000
                CHANNELS 3 Xrotation Yrotation Zrotation
                JOINT lShoulder
                {
                    OFFSET   0.117647   0.000000   0.000000
                    CHANNELS 3 Xrotation Yrotation Zrotation
                    JOINT lElbow
                    {
                        OFFSET   0.245000   0.000000   0.000000
                        CHANNELS 3 Xrotation Yrotation Zrotation
                        JOINT lWrist
                        {
                            OFFSET   0.240000   0.000000   0.000000
                            CHANNELS 3 Xrotation Yrotation Zrotation
                            End Site
                            {
                                OFFSET   0.116353  -0.002500   0.000000
                            }
                        }
                    }
                }
            }
        }
    }
    JOINT rHip
    {
        OFFSET  -0.100000  -0.051395   0.000000
        CHANNELS 3 Xrotation Yrotation Zrotation
        JOINT rKnee
        {
            OFFSET   0.000000  -0.410000   0.000000
            CHANNELS 3 Xrotation Yrotation Zrotation
            JOINT rAnkle
            {
                OFFSET   0.000000  -0.390000   0.000000
                CHANNELS 3 Xrotation Yrotation Zrotation
                JOINT rToeJoint
                {
                    OFFSET   0.000000  -0.050000   0.130000
                    CHANNELS 3 Xrotation Yrotation Zrotation
                    End Site
                    {
                        OFFSET  -0.010000   0.002000   0.060000
                    }
                }
            }
        }
    }
    JOINT lHip
    {
        OFFSET   0.100000  -0.051395   0.000000
        CHANNELS 3 Xrotation Yrotation Zrotation
        JOINT lKnee
        {
            OFFSET   0.000000  -0.410000   0.000000
            CHANNELS 3 Xrotation Yrotation Zrotation
            JOINT lAnkle
            {
                OFFSET   0.000000  -0.390000   0.000000
                CHANNELS 3 Xrotation Yrotation Zrotation
                JOINT lToeJoint
                {
                    OFFSET   0.000000  -0.050000   0.130000
                    CHANNELS 3 Xrotation Yrotation Zrotation
                    End Site
                    {
                        OFFSET   0.010000   0.002000   0.060000
                    }
                }
            }
        }
    }
}
MOTION
Frames: 11
Frame Time:   0.008333
 -2.376719   0.925631   3.975860   0.000000   0.000000   0.000000   0.000000   0.000000   0.000000   0.000000   0.000000   0.000000   0.000000   0.000000   0.000000   0.000000   0.000000   0.000000   0.000000   0.000000   0.000000   0.000000   0.000000   0.000000   0.000000   0.000000   0.000000   0.000000   0.000000   0.000000   0.000000   0.000000   0.000000   0.000000   0.000000   0.000000   0.000000   0.000000   0.000000   0.000000   0.000000   0.000000   0.000000   0.000000   0.000000   0.000000   0.000000   0.000000   0.000000   0.000000   0.000000   0.000000   0.000000   0.000000   0.000000   0.000000   0.000000   0.000000   0.000000   0.000000   0.000000   0.000000   0.000000
 -2.376454   0.925859   3.976151  -0.122157   0.192979  -0.103395   0.127712  -0.150020   0.175631   0.106163  -0.164237   0.033542  -0.135491   0.122589   0.095312   0.041280  -0.500013  -0.389843   0.199693   0.098248   2.456516   0.019083   1.004889  -0.003185   0.050812  -0.001138  -2.277543   0.104373   0.580586   0.064623   0.531002   0.075555  -2.374382   0.022864  -1.183814   0.007834   0.146832   0.039849   2.319827  -0.090992  -0.112368   0.055282   0.806026   0.000341   0.000565  -1.551304  -0.562312   0.114469  -0.396005   0.000244   0.001660  -0.382509   0.011323   0.104598   1.976613   0.000034   0.003536  -1.915719   0.566119   0.270955   0.019244  -0.000046   0.000130
 -2.376082   0.926312   3.976966  -0.290981   0.352038  -0.221995   0.209782  -0.299058   0.384601   0.232367  -0.334651   0.092533  -0.231731   0.238376   0.209338   0.078619  -1.072925  -0.192674   0.392771   0.143704   5.373083   0.042419   1.953745  -0.004599   0.130768   0.237952  -3.896811   0.212830   1.224773  -0.504983   1.057520   0.185141  -5.256320   0.050872  -2.300983   0.012666   0.331403  -0.171796   3.933137  -0.141136  -0.217743   0.082550   1.658830   0.000968   0.000832  -3.008783  -1.095318   0.206658  -0.862165   0.000222   0.003261  -0.604153   0.040870   0.239121   4.085195   0.000032   0.006339  -3.703776   1.096527   0.543904  -0.020992   0.000065  -0.000149
 -2.375651   0.926656   3.978151  -0.445280   0.483589  -0.338683   0.230080  -0.450969   0.598990   0.322007  -0.506234   0.160520  -0.315586   0.345919   0.324534   0.118195  -1.674937   0.395002   0.584312   0.141940   8.589530   0.064219   2.822858  -0.004464   0.209741   0.440586  -4.842121   0.326971   1.880999  -1.464467   1.583807   0.311680  -8.458522   0.077085  -3.329363   0.014934   0.509211  -0.360930   4.834332  -0.201590  -0.317219   0.074432   2.470429   0.001675   0.000848  -4.368159  -1.595703   0.279999  -1.295428   0.000005   0.004350  -0.705158   0.069503   0.386188   6.125124  -0.000053   0.007990  -5.371136   1.584160   0.814532  -0.050906   0.000132  -0.000289
 -2.375223   0.926645   3.979573  -0.577742   0.598914  -0.448414   0.201901  -0.607934   0.804365   0.371919  -0.680089   0.220016  -0.395193   0.445698   0.439055   0.167230  -2.291648   1.229163   0.780707   0.103348  12.015295   0.082155   3.617277  -0.003390   0.276721   0.555806  -5.285242   0.452941   2.533977  -2.688845   2.094467   0.434976 -11.751198   0.098251  -4.275894   0.015439   0.670748  -0.483177   5.159044  -0.282923  -0.411177   0.037455   3.226596   0.002320   0.000749  -5.637143  -2.064933   0.337076  -1.697777  -0.000285   0.005011  -0.716244   0.096133   0.542636   8.066688  -0.000281   0.008901  -6.928579   2.031922   1.080782  -0.079458   0.000185  -0.000377
 -2.374848   0.926091   3.981128  -0.692305   0.704314  -0.550273   0.139282  -0.769899   0.992292   0.390992  -0.856533   0.263912  -0.471823   0.538340   0.549743   0.230430  -2.913046   2.207617   0.986425   0.037482  15.585111   0.095527   4.343765  -0.001854   0.329387   0.584636  -5.382972   0.593505   3.173405  -4.070643   2.583228   0.544814 -15.001134   0.113417  -5.148876   0.014904   0.815274  -0.544538   5.076501  -0.385614  -0.499433  -0.020029   3.927518   0.002837   0.000615  -6.822118  -2.504391   0.380341  -2.071047  -0.000575   0.005334  -0.657702   0.121162   0.708330   9.906837  -0.000647   0.009367  -8.383908   2.443082   1.341141  -0.108149   0.000232  -0.000436
 -2.374549   0.924863   3.982732  -0.793951   0.801710  -0.644912   0.054060  -0.936051   1.160158   0.388861  -1.035306   0.292773  -0.545585   0.624485   0.653575   0.310076  -3.529954   3.257761   1.203970  -0.046191  19.251541   0.104509   5.009167  -0.000183   0.369216   0.540335  -5.256603   0.748500   3.790561  -5.521855   3.050369   0.636540 -18.152000   0.122895  -5.956079   0.013872   0.945471  -0.560276   4.736746  -0.508347  -0.581883  -0.091428   4.576067   0.003211   0.000474  -7.928752  -2.915511   0.412005  -2.416446  -0.000827   0.005405  -0.544954   0.144883   0.882464  11.647351  -0.001100   0.009536  -9.743931   2.820695   1.594476  -0.136681   0.000273  -0.000470
 -2.374098   0.922310   3.983988  -0.853228   0.770856  -0.562674   0.101760  -0.975059   1.165342   0.238662  -1.153087   0.279014  -0.707389   0.683084   0.688942   0.533210  -4.179782   3.694310   1.613302  -0.045657  22.878607   0.110907   5.759550  -0.000687   0.271494   0.415417  -4.073299   0.956066   4.353423  -6.195757   3.048475   0.679210 -21.404939   0.127340  -6.813750   0.010136   0.934109  -0.465392   3.561924  -0.719033  -0.922786  -0.306409   4.904532   0.002855  -0.000739  -8.577394  -3.410482   0.546710  -2.433703  -0.000661   0.004454  -0.212512   0.230396   0.750141  12.576627  -0.000263   0.007951 -11.274836   3.309959   2.079095   0.024982  -0.000368   0.000396
 -2.373752   0.921499   3.985224  -0.917460   0.868636  -0.917632   0.164872  -1.068965   1.529759   0.102807  -1.310785   0.411184  -0.862670   0.737866   0.725140   0.749939  -4.795010   4.058321   1.996498  -0.030915  26.183337   0.112075   6.456130  -0.000817   0.185745   0.282041  -2.988731   1.140601   4.834703  -6.852394   3.035404   0.688993 -24.424265   0.127052  -7.627422   0.007080   0.916612  -0.419883   2.472378  -0.966930  -1.287985  -0.013889   5.709155   0.002493  -0.002510  -8.671664  -3.886658   0.731568  -2.382817  -0.000553   0.003233   0.154072   0.285766   0.956299  13.327726   0.001044   0.007090 -12.712763   3.754788   2.545026   0.185818  -0.000700   0.001170
 -2.373232   0.920975   3.986325  -0.931266   0.997252  -1.165743   0.206969  -1.173358   1.744592  -0.037047  -1.481025   0.528862  -1.012136   0.789644   0.768791   0.955852  -5.370727   4.313133   2.352507   0.002917  29.235755   0.109134   7.108648  -0.000687   0.106862   0.160843  -1.965831   1.309526   5.259485  -7.316464   3.017390   0.684738 -27.161432   0.122521  -8.394584   0.004791   0.903547  -0.421998   1.483866  -1.160566  -1.620273   0.160516   6.337688   0.002214  -0.003157  -8.985936  -4.325281   0.874508  -2.311998  -0.000460   0.002193   0.471746   0.345002   0.918582  14.011429   0.002816   0.006310 -14.062578   4.157016   2.989880   0.316240  -0.000707   0.001621
 -2.372598   0.920530   3.987237  -0.904182   1.108138  -1.383145   0.249759  -1.272960   1.913070  -0.172756  -1.646580   0.625556  -1.155924   0.838475   0.805124   1.144630  -5.898285   4.473154   2.677401   0.057670  32.034914   0.103510   7.721213  -0.000471   0.034077   0.059469  -1.063756   1.462374   5.637606  -7.642601   2.993743   0.671849 -29.643059   0.115360  -9.115737   0.003262   0.893478  -0.454716   0.657421  -1.347046  -1.922562   0.297128   6.851118   0.001973  -0.003407  -9.334136  -4.732131   0.995974  -2.263816  -0.000374   0.001507   0.752789   0.408080   0.750387  14.645634   0.004602   0.005394 -15.327473   4.520426   3.413201   0.425990  -0.000575   0.001826
